<svg version="1.2" xmlns="http://www.w3.org/2000/svg" viewBox="0 0 14 18" width="14" height="18"><style>.s0{fill:#ff18a2;stroke:#ff18a2;stroke-width:.3}.s1{fill:#ff18a2}</style><path fill-rule="evenodd" class="s0" d="m2.8 2.8c2.3-2.4 6.1-2.4 8.4 0c1 1 1.6 2.3 1.8 3.7c0.1 1.4-0.2 2.8-1 3.9q0 0 0 0.1l-4.5 6.3q-0.2 0.2-0.5 0.2q-0.3 0-0.5-0.2l-4.5-6.3q0-0.1 0-0.1c-0.8-1.1-1.1-2.5-1-3.9c0.2-1.4 0.8-2.7 1.8-3.7zm0.1 7l4.1 5.7l4.1-5.7c0.6-1 0.9-2.1 0.7-3.2c-0.1-1.1-0.6-2.2-1.4-3c-0.9-0.9-2.1-1.5-3.4-1.5c-1.3 0-2.5 0.6-3.4 1.5c-0.8 0.8-1.3 1.9-1.5 3c-0.1 1.1 0.2 2.2 0.8 3.2z" /><path class="s1" d="m7 8c-0.6 0-1-0.4-1-1c0-0.6 0.4-1 1-1c0.6 0 1 0.4 1 1c0 0.6-0.4 1-1 1z" /></svg>