<svg version="1.2" xmlns="http://www.w3.org/2000/svg" viewBox="0 0 53 73" width="53" height="73"><style>.s0{fill:#ff18a2}</style><path fill-rule="evenodd" class="s0" d="m38.8 53.6h2.6v12.8q0 1.3-0.5 2.4q-0.5 1.2-1.4 2.1q-0.9 0.9-2.1 1.4q-1.2 0.5-2.5 0.5h-28.4c-1.8 0-3.4-0.7-4.6-1.9c-1.2-1.2-1.9-2.8-1.9-4.5v-59.5c0-1.7 0.7-3.4 1.9-4.6c1.2-1.2 2.8-1.9 4.6-1.9h28.4q1.3 0 2.5 0.5q1.2 0.5 2.1 1.4q0.9 0.9 1.4 2.1q0.5 1.2 0.5 2.5v5.4h-2.6v-1.5h-36.2v46.5h36.2zm-35.1-49.5c-0.7 0.8-1.1 1.8-1.1 2.8v1.3h36.2v-1.3c0-1-0.4-2-1.2-2.8c-0.7-0.7-1.7-1.1-2.7-1.1h-28.4c-1.1 0-2.1 0.4-2.8 1.1zm33.9 65c0.8-0.7 1.2-1.7 1.2-2.7v-6.5h-36.2v6.5c0 1 0.4 2 1.1 2.7c0.7 0.7 1.7 1.1 2.8 1.1h28.4c1 0 2-0.4 2.7-1.1zm-11.7-62.2h-10.4v-2.6h10.4zm-5.2 59.5q-0.4 0-0.7-0.3q-0.4-0.2-0.5-0.5q-0.2-0.4-0.1-0.8q0.1-0.4 0.4-0.6q0.2-0.3 0.6-0.4q0.4-0.1 0.8 0.1q0.3 0.1 0.6 0.5q0.2 0.3 0.2 0.7c0 0.3-0.2 0.6-0.4 0.9c-0.2 0.2-0.6 0.4-0.9 0.4zm29.7-20.1c0 3.1-5.3 4.5-10.3 4.5c-5 0-10.4-1.4-10.4-4.5c0-1.7 1.9-3.1 5-3.9c-3.5-3.6-7.6-9.1-7.6-14.8c0-3.4 1.4-6.7 3.8-9.2c2.5-2.4 5.7-3.7 9.2-3.7c3.4 0 6.7 1.3 9.1 3.7c2.4 2.5 3.8 5.8 3.8 9.2c0 5.7-4.1 11.2-7.5 14.8c3.1 0.8 4.9 2.2 4.9 3.9zm-17.6-26c-2 1.9-3.1 4.5-3.1 7.3c0 7 7.8 14.2 10.4 16.4c2.6-2.2 10.3-9.4 10.3-16.4c0-2.8-1.1-5.4-3-7.3c-2-2-4.6-3.1-7.3-3.1c-2.8 0-5.4 1.1-7.3 3.1zm15 26c-0.1-0.3-1.4-1.2-4.5-1.7c-1.3 1.2-2.3 2-2.4 2.1q-0.4 0.3-0.8 0.3q-0.5 0-0.8-0.3c-0.2-0.1-1.1-0.9-2.4-2.1c-3.3 0.5-4.5 1.4-4.6 1.8c0.2 0.4 2.8 1.9 7.8 1.9c4.9 0 7.6-1.5 7.7-2zm-3.2-14.1c-1.2 1.2-2.8 1.8-4.5 1.8c-1.3 0-2.6-0.3-3.6-1c-1.1-0.8-1.9-1.8-2.4-2.9c-0.5-1.2-0.6-2.5-0.4-3.8c0.3-1.2 0.9-2.4 1.8-3.3c0.9-0.9 2.1-1.5 3.3-1.8c1.3-0.2 2.6-0.1 3.7 0.4c1.2 0.5 2.2 1.3 2.9 2.4c0.8 1.1 1.1 2.3 1.1 3.6c0 1.7-0.6 3.3-1.9 4.6zm-7.3-1.9c0.8 0.8 1.7 1.2 2.8 1.2c0.7 0 1.5-0.3 2.1-0.7c0.7-0.4 1.2-1 1.5-1.7c0.2-0.7 0.3-1.5 0.2-2.3c-0.2-0.7-0.5-1.4-1.1-2c-0.5-0.5-1.2-0.9-2-1c-0.7-0.2-1.5-0.1-2.2 0.2c-0.7 0.3-1.3 0.8-1.8 1.4c-0.4 0.7-0.6 1.4-0.6 2.2c0 1 0.4 2 1.1 2.7z" /><path fill-rule="evenodd" class="s0" d="m20.7 42.1c-2.3 0-4.2-1.8-4.2-4.1c0-2.3 1.9-4.2 4.2-4.2c2.2 0 4.1 1.9 4.1 4.2c0 2.3-1.9 4.1-4.1 4.1zm-10.8-2.1c-1.1 1.1-2.9-0.6-1.7-1.8l12.4-12.4c1.2-1.2 2.9 0.6 1.8 1.7zm0-16.3c2.2 0 4.1 1.8 4.1 4.1c0 2.3-1.9 4.1-4.1 4.1c-2.3 0-4.2-1.8-4.2-4.1c0-2.3 1.9-4.1 4.2-4.1zm0 2.4c-1 0-1.7 0.8-1.7 1.7c0 0.9 0.7 1.7 1.7 1.7c0.9 0 1.6-0.8 1.6-1.7c0-0.9-0.7-1.7-1.6-1.7zm10.7 13.6c0.9 0 1.7-0.8 1.7-1.7c0-0.9-0.8-1.6-1.7-1.6c-0.9 0-1.6 0.7-1.6 1.6c0 0.9 0.7 1.7 1.6 1.7z" /></svg>